<?xml version="1.0" encoding="UTF-8"?>
<svg xmlns="http://www.w3.org/2000/svg" xmlns:xlink="http://www.w3.org/1999/xlink" width="40px" height="40px" viewBox="0 0 40 40" version="1.1">
<g id="surface1">
<path style=" stroke:none;fill-rule:evenodd;fill:rgb(99.607843%,35.686275%,17.254902%);fill-opacity:1;" d="M 17.875 0 L 17.875 4.824219 L 19.453125 18.519531 C 19.449219 18.519531 19.449219 18.519531 19.445312 18.519531 L 10.773438 7.765625 L 7.359375 4.355469 L 5.914062 5.804688 L 4.355469 7.363281 L 7.765625 10.773438 L 18.53125 19.316406 C 18.527344 19.324219 18.523438 19.332031 18.519531 19.339844 L 4.824219 17.875 L 0 17.875 L 0 22.125 L 4.824219 22.125 L 18.417969 20.558594 C 18.421875 20.578125 18.429688 20.601562 18.4375 20.621094 L 7.765625 29.230469 L 4.355469 32.640625 L 7.359375 35.644531 L 10.773438 32.234375 L 19.246094 21.550781 C 19.273438 21.566406 19.300781 21.578125 19.328125 21.589844 L 17.875 35.175781 L 17.875 40 L 22.125 40 L 22.125 35.175781 L 20.566406 21.632812 C 20.59375 21.621094 20.621094 21.613281 20.648438 21.601562 L 29.226562 32.234375 L 32.640625 35.644531 L 34.085938 34.199219 L 35.644531 32.636719 L 32.234375 29.226562 L 21.519531 20.726562 C 21.53125 20.707031 21.539062 20.6875 21.546875 20.667969 L 35.175781 22.125 L 40 22.125 L 40 17.875 L 35.175781 17.875 L 21.527344 19.445312 C 21.523438 19.4375 21.519531 19.425781 21.515625 19.417969 L 32.234375 10.769531 L 35.644531 7.359375 L 32.640625 4.355469 L 29.226562 7.765625 L 20.660156 18.5625 C 20.660156 18.5625 20.65625 18.5625 20.65625 18.5625 L 22.125 4.824219 L 22.125 0 Z M 17.875 0 "/>
</g>
</svg>
