<svg width="40" height="40" fill="none" xmlns="http://www.w3.org/2000/svg"><path fill-rule="evenodd" clip-rule="evenodd" d="M17.874 0v4.823l1.578 13.695-.005.002-8.675-10.754-3.41-3.41-1.449 1.447-1.558 1.559 3.41 3.41 10.768 8.543a1.875 1.875 0 0 0-.012.024L4.823 17.874H0V22.126h4.823l13.594-1.566.02.06L7.766 29.23l-3.41 3.41 1.446 1.448 1.56 1.559 3.41-3.41 8.476-10.684.08.038-1.454 13.586V40H22.126v-4.824l-1.56-13.543c.028-.01.056-.021.083-.033l8.58 10.634 3.41 3.411 1.447-1.448 1.559-1.559-3.41-3.41-10.714-8.5.025-.06 13.63 1.458H40V17.874h-4.823l-13.649 1.573a1.244 1.244 0 0 0-.012-.03l10.718-8.646 3.411-3.41-1.447-1.448-1.56-1.559-3.41 3.41-8.567 10.799-.005-.002 1.47-13.738V0H17.874Z" fill="#231F20"/></svg>