<svg width="170" height="49" fill="none" xmlns="http://www.w3.org/2000/svg"><g fill="#231F20"><path d="M5.972 40.992a3.003 3.003 0 0 1 1.111 2.002l-.94.09a2.292 2.292 0 0 0-.821-1.502 2.593 2.593 0 0 0-1.672-.54 2.543 2.543 0 0 0-2.002.81 3.133 3.133 0 0 0-.75 2.213 3.093 3.093 0 0 0 .76 2.232 2.613 2.613 0 0 0 2.002.79 2.302 2.302 0 0 0 2.473-1.931l.95.08a3.003 3.003 0 0 1-1.13 1.952 3.934 3.934 0 0 1-4.926-.31 4.364 4.364 0 0 1 0-5.626 3.904 3.904 0 0 1 4.945-.26ZM15.792 40.21a3.666 3.666 0 0 1 2.693 1.002 3.714 3.714 0 0 1 1.071 2.793 3.755 3.755 0 0 1-1.071 2.802 4.004 4.004 0 0 1-5.396 0 3.754 3.754 0 0 1-1.07-2.802 3.635 3.635 0 0 1 3.773-3.844v.05Zm-2.002 1.632a3.454 3.454 0 0 0 0 4.425 2.772 2.772 0 0 0 2.002.81 2.735 2.735 0 0 0 2.002-.81 3.453 3.453 0 0 0 0-4.425 3.003 3.003 0 0 0-4.074 0h.07ZM30.731 47.798h-.78l-4.005-5.785v5.785h-.92v-7.487h.77l4.004 5.796V40.31h.911l.02 7.487ZM40.571 40.771a1.942 1.942 0 0 1 .75 1.522l-.93.06a1.44 1.44 0 0 0-1.632-1.341c-1 0-1.621.53-1.621 1.29a.93.93 0 0 0 .41.862c.445.224.92.383 1.411.47a5.417 5.417 0 0 1 1.882.7 1.502 1.502 0 0 1 .701 1.402 1.891 1.891 0 0 1-.75 1.622 3.153 3.153 0 0 1-1.913.54 3.273 3.273 0 0 1-2.002-.58 2.002 2.002 0 0 1-.84-1.602l.92-.05a1.351 1.351 0 0 0 .591 1.001c.39.27.857.407 1.331.39 1.001 0 1.732-.42 1.732-1.29a1.001 1.001 0 0 0-.33-.781 1.281 1.281 0 0 0-.43-.25 3.704 3.704 0 0 0-.531-.18 6.405 6.405 0 0 0-.69-.181c-.401-.09-.722-.18-1.002-.26a4.565 4.565 0 0 1-.74-.36 1.57 1.57 0 0 1-.721-1.462 2 2 0 0 1 .65-1.512 2.663 2.663 0 0 1 1.882-.61 2.873 2.873 0 0 1 1.872.6ZM53.054 40.31v4.686a3.003 3.003 0 1 1-6.006 0V40.32h.91v4.675a2.072 2.072 0 1 0 4.145 0V40.33l.95-.02ZM58.98 46.998h3.754v.81h-4.675v-7.487h.92v6.677ZM74.555 41.122h-2.782v6.676h-.921v-6.676h-2.783v-.811h6.486v.81ZM87.128 47.798h-1l-.782-1.901h-3.473l-.79 1.901H80.08l3.133-7.487h.781l3.133 7.487Zm-4.945-2.702h2.793l-1.391-3.374-1.402 3.374ZM97.8 47.798h-.782l-4.004-5.785v5.785h-.92v-7.487h.77l4.004 5.796V40.31h.911l.02 7.487ZM109.077 40.992a3.003 3.003 0 0 1 1.121 2.002l-1.001.09a2.249 2.249 0 0 0-.821-1.502 2.591 2.591 0 0 0-1.672-.54 2.542 2.542 0 0 0-2.002.81 3.13 3.13 0 0 0-.75 2.213 3.09 3.09 0 0 0 .76 2.232 2.621 2.621 0 0 0 2.002.79 2.324 2.324 0 0 0 2.483-1.931l1.001.08a3.006 3.006 0 0 1-1.141 1.952 3.934 3.934 0 0 1-4.925-.31 4.362 4.362 0 0 1 0-5.626 3.903 3.903 0 0 1 4.945-.28v.02ZM118.91 44.685v3.113H118v-3.113l-2.883-4.374h1.061l2.242 3.473 2.222-3.473h1.061l-2.793 4.374Z"/></g><path d="m129.33 8.117-3.248 3.25 7.037 7.034 3.248-3.249-7.037-7.035ZM154.001 8.14l-7.036 7.036 3.249 3.248 7.036-7.035-3.249-3.25ZM162.964 38.213l-3.249 3.25 7.036 7.035L170 45.249l-7.036-7.036ZM145.873 38.214l-7.036 7.035 3.249 3.25 7.035-7.037-3.248-3.248Z" fill="#231F20"/><path d="M154.413 31.442 141.67 18.699l-12.973 12.993h6.486l6.487-6.506 12.743 12.752 12.993-13.123h-6.436l-6.557 6.627Z" fill="#FE5B2C"/><g fill="#231F20"><path d="M4.701 31.522H.046V0h5.076v25.356l-.42.61v5.556Zm8.088.47a9.82 9.82 0 0 1-5.005-1.16 6.667 6.667 0 0 1-2.873-3.224h-.94l.28-5.686h.89a6.557 6.557 0 0 0 .731 3.223 4.424 4.424 0 0 0 2.162 1.902 10.14 10.14 0 0 0 6.357.19 4.695 4.695 0 0 0 2.002-1.34 5.635 5.635 0 0 0 1.151-2.423 19.381 19.381 0 0 0 0-7.338 5.595 5.595 0 0 0-1.131-2.402 4.615 4.615 0 0 0-2.002-1.321 10.3 10.3 0 0 0-6.407.19 4.485 4.485 0 0 0-2.162 1.882c-.519 1-.77 2.117-.73 3.243H4.22l-.28-5.876h1.27a7.718 7.718 0 0 1 2.763-2.893A9.22 9.22 0 0 1 13.1 7.668a8.569 8.569 0 0 1 7.297 3.293c1.662 2.192 2.493 5.145 2.493 8.84 0 3.693-.861 6.656-2.593 8.868a9.01 9.01 0 0 1-7.508 3.313v.01ZM31.518 5.175h-5.005V0h5.075l-.07 5.175Zm.05 26.347h-5.085V7.958h5.085v23.564ZM56.554 31.522H34.53v-3.954l11.342-11.602 3.003-3.003v-.43H35.192V8.118h20.65v4.275l-11.62 11.621-2.724 2.643v.37h15.106l-.05 4.495ZM64.692 31.522h-5.085V8.138h4.654v7.007l.43.24v16.137Zm16.226 0h-5.005V17.968c0-2.102-.4-3.603-1.2-4.514-.802-.911-2.253-1.372-4.345-1.372a6.085 6.085 0 0 0-4.265 1.302c-.92.86-1.381 2.362-1.381 4.494l-.901.18-.42-5.545h1.13a7.436 7.436 0 0 1 1.502-2.353 7.848 7.848 0 0 1 2.603-1.792 9.44 9.44 0 0 1 3.814-.7 8.949 8.949 0 0 1 4.825 1.171 7.146 7.146 0 0 1 2.752 3.243c.617 1.508.92 3.126.891 4.755v14.685Zm16.237 0H92.06V17.968c0-2.102-.38-3.603-1.151-4.514s-2.223-1.372-4.355-1.372a6.006 6.006 0 0 0-4.254 1.322c-.931.88-1.392 2.382-1.392 4.514l-.89.14-.431-5.545h.76a9.81 9.81 0 0 1 1.572-2.303 7.357 7.357 0 0 1 2.613-1.842 9.66 9.66 0 0 1 3.904-.7 9.259 9.259 0 0 1 4.915 1.171 7.358 7.358 0 0 1 2.853 3.243c.647 1.5.968 3.121.94 4.755l.01 14.685ZM108.346 31.982a8.598 8.598 0 0 1-5.315-1.601 5.484 5.484 0 0 1-2.112-4.665 5.704 5.704 0 0 1 .891-3.263 6.29 6.29 0 0 1 2.652-2.162 15.547 15.547 0 0 1 4.215-1.202l8.658-1.22v3.623l-7.908 1.08a7.205 7.205 0 0 0-2.823.892 2.154 2.154 0 0 0-.8 1.882 2.224 2.224 0 0 0 1.001 2.002c.98.496 2.077.714 3.173.63 1.12.002 2.232-.18 3.293-.54a5.446 5.446 0 0 0 2.613-1.862 5.89 5.89 0 0 0 1.001-3.664l.661 6.006h-.711a8.005 8.005 0 0 1-1.832 2.002 9.634 9.634 0 0 1-2.823 1.532 11.39 11.39 0 0 1-3.834.53Zm13.364-.47h-4.705v-4.615l-.14-1.271v-9.01c0-1.75-.421-2.942-1.251-3.573a6.808 6.808 0 0 0-4.004-.94 6.37 6.37 0 0 0-4.005 1 4.008 4.008 0 0 0-1.201 3.314v.7h-4.885v-.47a8.525 8.525 0 0 1 1.292-4.635 8.8 8.8 0 0 1 3.623-3.193 12.074 12.074 0 0 1 5.436-1.151 11.01 11.01 0 0 1 5.435 1.221 8.009 8.009 0 0 1 3.294 3.363 11.024 11.024 0 0 1 1.101 5.056l.01 14.204Z"/></g></svg>