<svg xmlns="http://www.w3.org/2000/svg" width="40" height="40"><path style="stroke:none;fill-rule:evenodd;fill:#fe5b2c;fill-opacity:1" d="M17.875 0v4.824l1.578 13.696h-.008L10.773 7.766 7.36 4.356 5.914 5.804 4.355 7.363l3.41 3.41 10.766 8.543-.011.024-13.696-1.465H0v4.25h4.824l13.594-1.566c.004.02.012.043.02.062l-10.672 8.61-3.41 3.41 3.003 3.004 3.414-3.41 8.473-10.684a.78.78 0 0 0 .082.039l-1.453 13.586V40h4.25v-4.824l-1.559-13.543c.028-.012.055-.02.082-.031l8.579 10.632 3.414 3.41 1.445-1.445 1.559-1.562-3.41-3.41-10.715-8.5c.011-.02.02-.04.027-.059l13.629 1.457H40v-4.25h-4.824l-13.649 1.57c-.004-.008-.007-.02-.011-.027l10.718-8.648 3.41-3.41-3.003-3.005-3.414 3.41-8.567 10.797h-.004l1.469-13.738V0Zm0 0"/></svg>